<svg id="Capa_1" enable-background="new 0 0 511.971 511.971" height="512" viewBox="0 0 511.971 511.971" width="512" xmlns="http://www.w3.org/2000/svg"><path d="m403.75 422.335c0 5.522 4.478 10 10 10h20.001c3.572 0 6.874-1.906 8.66-5s1.786-6.906 0-10l-177.768-307.904c-1.786-3.094-5.088-5-8.66-5s-6.874 1.906-8.66 5l-177.768 307.904c-1.786 3.094-1.786 6.906 0 10s5.088 5 8.66 5h245.535c5.522 0 10-4.478 10-10s-4.478-10-10-10h-228.214l160.447-277.903 160.447 277.903h-2.681c-5.522 0-9.999 4.477-9.999 10z"/><path d="m507.225 429.835-220.786-382.413c-6.199-11.043-17.498-17.689-30.24-17.783-.091-.001-.181-.001-.271-.001-12.603 0-23.872 6.493-30.187 17.414l-21.616 37.44c-2.762 4.783-1.123 10.898 3.66 13.66 4.785 2.761 10.899 1.123 13.66-3.66l21.613-37.435c3.905-6.755 10.414-7.427 12.992-7.42 5.481.041 10.328 2.883 12.966 7.604.022.042.046.082.069.123l220.822 382.477c2.743 4.743 2.748 10.18.014 14.915-2.721 4.711-7.548 7.522-12.926 7.522h-.014l-441.999.056c-8.101 0-11.918-5.545-13.184-7.929-2.674-5.037-2.396-10.816.745-15.459.134-.196.26-.397.378-.604l153.522-265.908c2.762-4.783 1.123-10.898-3.66-13.66-4.784-2.762-10.899-1.122-13.66 3.66l-153.358 265.626c-7.05 10.671-7.683 24.322-1.631 35.723 6.166 11.616 17.698 18.551 30.85 18.551l441.99-.056h.033c12.596 0 23.897-6.548 30.233-17.521 6.314-10.932 6.307-23.99-.015-34.922z"/><path d="m184.737 136.787c1.705 1.137 3.632 1.681 5.538 1.681 3.23 0 6.402-1.563 8.329-4.454l.004-.006c3.063-4.595 1.82-10.801-2.775-13.864-4.596-3.063-10.806-1.819-13.869 2.776-3.064 4.594-1.823 10.803 2.773 13.867z"/><path d="m368.746 412.335c-5.522 0-9.996 4.478-9.996 10s4.481 10 10.004 10 10-4.478 10-10-4.478-10-10-10z"/><path d="m347.601 331.122c1.792-3.098 1.792-6.917 0-10.016-7.712-13.331-18.135-24.598-30.335-33.262l6.269-10.858c2.762-4.782 1.123-10.898-3.66-13.66-4.784-2.761-10.898-1.123-13.66 3.66l-6.269 10.857c-10.642-4.877-22.116-8.013-33.975-9.148v-12.493c0-5.522-4.478-10-10-10s-10 4.478-10 10v12.493c-11.859 1.135-23.333 4.271-33.976 9.147l-6.268-10.856c-2.762-4.781-8.876-6.422-13.66-3.66-4.783 2.762-6.422 8.878-3.66 13.66l6.269 10.857c-12.201 8.665-22.625 19.932-30.337 33.263-1.792 3.099-1.792 6.918 0 10.016 7.712 13.331 18.136 24.598 30.336 33.262l-6.269 10.858c-2.762 4.783-1.123 10.899 3.66 13.66 1.575.909 3.294 1.342 4.99 1.342 3.456 0 6.818-1.794 8.67-5.002l6.268-10.857c10.642 4.877 22.117 8.013 33.976 9.148v12.492c0 5.522 4.478 10 10 10s10-4.478 10-10v-12.492c11.859-1.136 23.333-4.271 33.976-9.148l6.268 10.857c1.853 3.208 5.213 5.002 8.67 5.002 1.696 0 3.416-.433 4.99-1.342 4.783-2.761 6.422-8.877 3.66-13.66l-6.269-10.858c12.2-8.664 22.624-19.931 30.336-33.262zm-91.632 32.89c-28.557 0-55.317-14.384-71.187-37.897 15.869-23.515 42.629-37.897 71.187-37.897s55.317 14.383 71.187 37.897c-15.869 23.513-42.63 37.897-71.187 37.897z"/><path d="m255.969 296.114c-16.542 0-30 13.458-30 30s13.458 30 30 30c16.543 0 30.001-13.458 30.001-30s-13.458-30-30.001-30zm0 40c-5.514 0-10-4.486-10-10s4.486-10 10-10c5.515 0 10.001 4.486 10.001 10s-4.486 10-10.001 10z"/></svg>